# xmcd
#
# Track frame offsets: 
#        150
#        22897
#        34194
#        44141
#        55103
#        70873
#        103558
#        125394
#        137869
#        160549
#        179162
#        194389
#        208791
#        223221
#        237872
#        274985
#
# Disc length: 3852 seconds
#
# Revision: 0
# Processed by: cddbd v1.5.2PL0 Copyright (c) Steve Scherf et al.
# Submitted via: ExactAudioCopy v0.99pb3
#
DISCID=f50f0a10
DTITLE=Little Wings - Magic Wand
DYEAR=2005
DGENRE=Popfrenzy
TTITLE0=Everybody
TTITLE1=Whale Mountain
TTITLE2=I Am With You
TTITLE3=Sing Wide
TTITLE4=Magic Wand
TTITLE5=So What?
TTITLE6=Laugh Now
TTITLE7=White Sky
TTITLE8=Uncle Kyle Says
TTITLE9=Hanta Yo Three
TTITLE10=Random Lee
TTITLE11=Darkened Car
TTITLE12=Santa's Village
TTITLE13=Outer Space
TTITLE14=I'm Around
TTITLE15=What A Level
EXTD=
EXTT0=
EXTT1=
EXTT2=
EXTT3=
EXTT4=
EXTT5=
EXTT6=
EXTT7=
EXTT8=
EXTT9=
EXTT10=
EXTT11=
EXTT12=
EXTT13=
EXTT14=
EXTT15=
PLAYORDER=
